<svg width="163" height="18" viewBox="0 0 163 18" fill="none" xmlns="http://www.w3.org/2000/svg">
<path fill-rule="evenodd" clip-rule="evenodd" d="M49.1 6.2C49 6.2 48.9 6.2 48.8 6.2H45V4.2H53.1V0.2H38V17.2H48.1C50.1 17.2 51.7 16.4 52.8 15.3C53.9 14.3 54.4 13 54.4 11.5C54.4 10 53.9 8.8 52.9 7.7C51.8 6.7 50.6 6.2 49.1 6.2ZM47.4 13C47.1 13.3 46.7 13.5 46.2 13.5H45V10C45.1 10 45.2 10 45.3 9.9H46.2C46.6 9.9 47 10.1 47.3 10.4C47.6 10.7 47.8 11.2 47.8 11.7C47.8 12.3 47.7 12.7 47.4 13ZM9.9 0.2H0V17.2H7V11.2H10.7C10.8 11.2 10.8 11.2 10.9 11.2C12.4 11.2 13.6 10.7 14.6 9.6C15.6 8.6 16.1 7.3 16.1 5.8C16.1 4.3 15.6 3 14.5 2C13.5 1.1 11.9 0.2 9.9 0.2ZM9.1 7C8.8 7.3 8.3 7.5 7.8 7.5H7.6C7.4 7.5 7.3 7.5 7.1 7.4V4H7.8C8.3 4 8.9 4.2 9.1 4.5C9.4 4.8 9.5 5.2 9.5 5.8C9.6 6.3 9.4 6.7 9.1 7ZM113.5 8.6C114.6 7.8 115.4 6.7 115.9 5.4C116.4 4.1 116.7 2.2 116.7 0.2H109.4C109.4 1.8 109.1 3.4 108.4 4.4C107.8 5.3 107.1 5.9 105.9 5.9V0.2H99V17.2H105.9V10.7C108.2 10.8 109.2 13.4 109.4 17.2H117.1C116.9 13.6 115.7 10.2 113.5 8.6ZM128.3 7.2C129.4 7.2 130.4 7.4 131.3 7.7L134.4 1.8C133.6 1.3 132.5 0.8 131.3 0.5C130 0.2 128.8 0 127.7 0C125 0 122.8 0.8 121 2.5C119.3 4.1 118.4 6.2 118.4 8.8C118.4 11.2 119.2 13.2 120.9 14.8C122.6 16.4 124.8 17.3 127.7 17.3C128.8 17.3 130 17.1 131.2 16.8C132.4 16.5 133.5 16.1 134.4 15.5L131.3 9.2C130.5 9.6 129.6 9.8 128.5 9.8C127.7 9.8 127.1 9.7 126.6 9.5C126.2 9.3 125.9 9 125.9 8.5C126 7.6 126.7 7.2 128.3 7.2ZM61.3 0.2L55.7 17.2H62.7L66.4 6.2L70.1 17.2H77.1L71.5 0.2H61.3Z" fill="white"/>
<path fill-rule="evenodd" clip-rule="evenodd" d="M18 17.2H35.1V0.200012H18V17.2ZM24 6.30001H29V11.2H24V6.30001Z" fill="url(#paint0_linear)"/>
<path fill-rule="evenodd" clip-rule="evenodd" d="M79 17.2H96.1V0.200012H79V17.2ZM85 6.30001H90V11.2H85V6.30001Z" fill="url(#paint1_linear)"/>
<path fill-rule="evenodd" clip-rule="evenodd" d="M145.1 0.200012H140.1V9.20001H143.7V6.10001H145.7C146.4 6.10001 147.1 5.80001 147.6 5.30001C148.1 4.70001 148.4 4.10001 148.4 3.30001C148.4 2.50001 148.1 1.80001 147.5 1.30001C147 0.700012 146.1 0.200012 145.1 0.200012ZM144.7 3.80001C144.5 4.00001 144.3 4.10001 144 4.10001C143.9 4.10001 143.8 4.10001 143.7 4.10001V2.20001H144.1C144.4 2.20001 144.6 2.30001 144.7 2.40001C144.8 2.60001 144.9 2.80001 144.9 3.10001C144.9 3.40001 144.8 3.70001 144.7 3.80001ZM162.2 1.20001C161.6 0.700012 160.8 0.200012 159.7 0.200012H158.3H154.7H153.3C152.2 0.200012 151.4 0.600012 150.8 1.20001C150.2 1.70001 149.9 2.40001 149.9 3.20001C149.9 4.00001 150.2 4.70001 150.7 5.20001C151.2 5.70001 151.8 6.00001 152.6 6.00001H154.7V9.10001H158.3V6.10001H160.3C161 6.10001 161.7 5.80001 162.2 5.30001C162.7 4.70001 163 4.10001 163 3.30001C163 2.40001 162.8 1.80001 162.2 1.20001ZM154.6 4.10001C154.5 4.10001 154.4 4.10001 154.3 4.10001C154 4.10001 153.8 4.00001 153.6 3.80001C153.4 3.60001 153.3 3.40001 153.3 3.10001C153.3 2.80001 153.4 2.60001 153.5 2.40001C153.6 2.20001 153.9 2.20001 154.1 2.20001H154.5V4.10001H154.6ZM159.3 3.80001C159.1 4.00001 158.9 4.10001 158.6 4.10001C158.5 4.10001 158.4 4.10001 158.3 4.10001V2.20001H158.7C159 2.20001 159.2 2.30001 159.3 2.40001C159.4 2.60001 159.5 2.80001 159.5 3.10001C159.6 3.40001 159.5 3.70001 159.3 3.80001Z" fill="#8B9299"/>
<defs>
<linearGradient id="paint0_linear" x1="36.4202" y1="17" x2="25.4452" y2="0.440581" gradientUnits="userSpaceOnUse">
<stop stop-color="#F0C42D"/>
<stop offset="0.255208" stop-color="#E6B71D"/>
<stop offset="0.989583" stop-color="#F3E15B"/>
</linearGradient>
<linearGradient id="paint1_linear" x1="97.4202" y1="17" x2="86.4452" y2="0.440581" gradientUnits="userSpaceOnUse">
<stop stop-color="#9EA5AE"/>
<stop offset="0.255208" stop-color="#878E96"/>
<stop offset="0.989583" stop-color="#CED3D8"/>
</linearGradient>
</defs>
</svg>
